<svg xmlns="http://www.w3.org/2000/svg" xmlns:xlink="http://www.w3.org/1999/xlink" width="500" zoomAndPan="magnify" viewBox="0 0 375 374.999991" height="500" preserveAspectRatio="xMidYMid meet" version="1.0"><defs><g/><clipPath id="6317426ee9"><path d="M 46 131.667969 L 108.835938 131.667969 L 108.835938 150.488281 L 46 150.488281 Z M 46 131.667969 " clip-rule="nonzero"/></clipPath><clipPath id="793e914729"><path d="M 49.820312 131.738281 L 105.019531 131.738281 C 107.089844 131.738281 108.769531 133.417969 108.769531 135.488281 L 108.769531 146.738281 C 108.769531 148.8125 107.089844 150.488281 105.019531 150.488281 L 49.820312 150.488281 C 47.746094 150.488281 46.070312 148.8125 46.070312 146.738281 L 46.070312 135.488281 C 46.070312 133.417969 47.746094 131.738281 49.820312 131.738281 Z M 49.820312 131.738281 " clip-rule="nonzero"/></clipPath><clipPath id="cb28000290"><path d="M 0 0.667969 L 62.835938 0.667969 L 62.835938 19.488281 L 0 19.488281 Z M 0 0.667969 " clip-rule="nonzero"/></clipPath><clipPath id="e3d0a90555"><path d="M 3.820312 0.738281 L 59.019531 0.738281 C 61.089844 0.738281 62.769531 2.417969 62.769531 4.488281 L 62.769531 15.738281 C 62.769531 17.8125 61.089844 19.488281 59.019531 19.488281 L 3.820312 19.488281 C 1.746094 19.488281 0.0703125 17.8125 0.0703125 15.738281 L 0.0703125 4.488281 C 0.0703125 2.417969 1.746094 0.738281 3.820312 0.738281 Z M 3.820312 0.738281 " clip-rule="nonzero"/></clipPath><clipPath id="645c18acb1"><rect x="0" width="63" y="0" height="20"/></clipPath><clipPath id="a56dbb007f"><path d="M 46.070312 141.113281 L 108.769531 141.113281 L 108.769531 150.488281 L 46.070312 150.488281 Z M 46.070312 141.113281 " clip-rule="nonzero"/></clipPath><clipPath id="8608e34b3e"><path d="M 0.0703125 0.113281 L 62.769531 0.113281 L 62.769531 9.488281 L 0.0703125 9.488281 Z M 0.0703125 0.113281 " clip-rule="nonzero"/></clipPath><clipPath id="023a6b7d63"><rect x="0" width="63" y="0" height="10"/></clipPath><clipPath id="4bc1a5ae44"><path d="M 46 207.941406 L 108.835938 207.941406 L 108.835938 226.761719 L 46 226.761719 Z M 46 207.941406 " clip-rule="nonzero"/></clipPath><clipPath id="6231397bd4"><path d="M 105.015625 226.691406 L 49.8125 226.691406 C 47.742188 226.691406 46.0625 225.011719 46.0625 222.941406 L 46.0625 211.691406 C 46.0625 209.617188 47.742188 207.941406 49.8125 207.941406 L 105.015625 207.941406 C 107.085938 207.941406 108.765625 209.617188 108.765625 211.691406 L 108.765625 222.941406 C 108.765625 225.011719 107.085938 226.691406 105.015625 226.691406 Z M 105.015625 226.691406 " clip-rule="nonzero"/></clipPath><clipPath id="b52ed1e3a0"><path d="M 0 0.941406 L 62.835938 0.941406 L 62.835938 19.761719 L 0 19.761719 Z M 0 0.941406 " clip-rule="nonzero"/></clipPath><clipPath id="52ffd79443"><path d="M 59.015625 19.691406 L 3.8125 19.691406 C 1.742188 19.691406 0.0625 18.011719 0.0625 15.941406 L 0.0625 4.691406 C 0.0625 2.617188 1.742188 0.941406 3.8125 0.941406 L 59.015625 0.941406 C 61.085938 0.941406 62.765625 2.617188 62.765625 4.691406 L 62.765625 15.941406 C 62.765625 18.011719 61.085938 19.691406 59.015625 19.691406 Z M 59.015625 19.691406 " clip-rule="nonzero"/></clipPath><clipPath id="f2258aa6cb"><rect x="0" width="63" y="0" height="20"/></clipPath><clipPath id="0c336720ce"><path d="M 46.0625 207.941406 L 108.765625 207.941406 L 108.765625 217.316406 L 46.0625 217.316406 Z M 46.0625 207.941406 " clip-rule="nonzero"/></clipPath><clipPath id="411b2afad0"><path d="M 0.0625 0.941406 L 62.765625 0.941406 L 62.765625 10.316406 L 0.0625 10.316406 Z M 0.0625 0.941406 " clip-rule="nonzero"/></clipPath><clipPath id="cfa725781d"><rect x="0" width="63" y="0" height="11"/></clipPath><clipPath id="266d3c85e2"><path d="M 46.070312 157.464844 L 108.835938 157.464844 L 108.835938 175.238281 L 46.070312 175.238281 Z M 46.070312 157.464844 " clip-rule="nonzero"/></clipPath><clipPath id="f2cbbe8aa5"><path d="M 47.570312 157.464844 L 107.269531 157.464844 C 108.097656 157.464844 108.769531 158.136719 108.769531 158.964844 L 108.769531 173.738281 C 108.769531 174.570312 108.097656 175.238281 107.269531 175.238281 L 47.570312 175.238281 C 46.742188 175.238281 46.070312 174.570312 46.070312 173.738281 L 46.070312 158.964844 C 46.070312 158.136719 46.742188 157.464844 47.570312 157.464844 Z M 47.570312 157.464844 " clip-rule="nonzero"/></clipPath><clipPath id="7a1dcf1b63"><path d="M 0.0703125 0.464844 L 62.835938 0.464844 L 62.835938 18.238281 L 0.0703125 18.238281 Z M 0.0703125 0.464844 " clip-rule="nonzero"/></clipPath><clipPath id="fb7fe06fa6"><path d="M 1.570312 0.464844 L 61.269531 0.464844 C 62.097656 0.464844 62.769531 1.136719 62.769531 1.964844 L 62.769531 16.738281 C 62.769531 17.570312 62.097656 18.238281 61.269531 18.238281 L 1.570312 18.238281 C 0.742188 18.238281 0.0703125 17.570312 0.0703125 16.738281 L 0.0703125 1.964844 C 0.0703125 1.136719 0.742188 0.464844 1.570312 0.464844 Z M 1.570312 0.464844 " clip-rule="nonzero"/></clipPath><clipPath id="d7c24ddd08"><rect x="0" width="63" y="0" height="19"/></clipPath><clipPath id="4898fe9b16"><path d="M 46.070312 182.703125 L 108.835938 182.703125 L 108.835938 200.476562 L 46.070312 200.476562 Z M 46.070312 182.703125 " clip-rule="nonzero"/></clipPath><clipPath id="1c72a0111a"><path d="M 47.570312 182.703125 L 107.269531 182.703125 C 108.097656 182.703125 108.769531 183.375 108.769531 184.203125 L 108.769531 198.976562 C 108.769531 199.804688 108.097656 200.476562 107.269531 200.476562 L 47.570312 200.476562 C 46.742188 200.476562 46.070312 199.804688 46.070312 198.976562 L 46.070312 184.203125 C 46.070312 183.375 46.742188 182.703125 47.570312 182.703125 Z M 47.570312 182.703125 " clip-rule="nonzero"/></clipPath><clipPath id="a9fc5ea426"><path d="M 0.0703125 0.703125 L 62.835938 0.703125 L 62.835938 18.476562 L 0.0703125 18.476562 Z M 0.0703125 0.703125 " clip-rule="nonzero"/></clipPath><clipPath id="ded7dfbdd7"><path d="M 1.570312 0.703125 L 61.269531 0.703125 C 62.097656 0.703125 62.769531 1.375 62.769531 2.203125 L 62.769531 16.976562 C 62.769531 17.804688 62.097656 18.476562 61.269531 18.476562 L 1.570312 18.476562 C 0.742188 18.476562 0.0703125 17.804688 0.0703125 16.976562 L 0.0703125 2.203125 C 0.0703125 1.375 0.742188 0.703125 1.570312 0.703125 Z M 1.570312 0.703125 " clip-rule="nonzero"/></clipPath><clipPath id="02b898eb4b"><rect x="0" width="63" y="0" height="19"/></clipPath><clipPath id="b759f6035e"><rect x="0" width="216" y="0" height="139"/></clipPath></defs><g clip-path="url(#6317426ee9)"><g clip-path="url(#793e914729)"><g transform="matrix(1, 0, 0, 1, 46, 131)"><g clip-path="url(#645c18acb1)"><g clip-path="url(#cb28000290)"><g clip-path="url(#e3d0a90555)"><path fill="#e03179" d="M 0.0703125 0.738281 L 62.765625 0.738281 L 62.765625 19.488281 L 0.0703125 19.488281 Z M 0.0703125 0.738281 " fill-opacity="1" fill-rule="nonzero"/></g></g></g></g></g></g><g clip-path="url(#a56dbb007f)"><g transform="matrix(1, 0, 0, 1, 46, 141)"><g clip-path="url(#023a6b7d63)"><g clip-path="url(#8608e34b3e)"><path fill="#e03179" d="M 0.0703125 0.113281 L 62.765625 0.113281 L 62.765625 9.488281 L 0.0703125 9.488281 Z M 0.0703125 0.113281 " fill-opacity="1" fill-rule="nonzero"/></g></g></g></g><g clip-path="url(#4bc1a5ae44)"><g clip-path="url(#6231397bd4)"><g transform="matrix(1, 0, 0, 1, 46, 207)"><g clip-path="url(#f2258aa6cb)"><g clip-path="url(#b52ed1e3a0)"><g clip-path="url(#52ffd79443)"><path fill="#4b9d9e" d="M 62.765625 19.691406 L 0.0703125 19.691406 L 0.0703125 0.941406 L 62.765625 0.941406 Z M 62.765625 19.691406 " fill-opacity="1" fill-rule="nonzero"/></g></g></g></g></g></g><g clip-path="url(#0c336720ce)"><g transform="matrix(1, 0, 0, 1, 46, 207)"><g clip-path="url(#cfa725781d)"><g clip-path="url(#411b2afad0)"><path fill="#4b9d9e" d="M 62.765625 10.316406 L 0.0703125 10.316406 L 0.0703125 0.941406 L 62.765625 0.941406 Z M 62.765625 10.316406 " fill-opacity="1" fill-rule="nonzero"/></g></g></g></g><g clip-path="url(#266d3c85e2)"><g clip-path="url(#f2cbbe8aa5)"><g transform="matrix(1, 0, 0, 1, 46, 157)"><g clip-path="url(#d7c24ddd08)"><g clip-path="url(#7a1dcf1b63)"><g clip-path="url(#fb7fe06fa6)"><path fill="#fac226" d="M 0.0703125 0.464844 L 62.765625 0.464844 L 62.765625 18.238281 L 0.0703125 18.238281 Z M 0.0703125 0.464844 " fill-opacity="1" fill-rule="nonzero"/></g></g></g></g></g></g><g clip-path="url(#4898fe9b16)"><g clip-path="url(#1c72a0111a)"><g transform="matrix(1, 0, 0, 1, 46, 182)"><g clip-path="url(#02b898eb4b)"><g clip-path="url(#a9fc5ea426)"><g clip-path="url(#ded7dfbdd7)"><path fill="#132338" d="M 0.0703125 0.703125 L 62.765625 0.703125 L 62.765625 18.476562 L 0.0703125 18.476562 Z M 0.0703125 0.703125 " fill-opacity="1" fill-rule="nonzero"/></g></g></g></g></g></g><g transform="matrix(1, 0, 0, 1, 123, 109)"><g clip-path="url(#b759f6035e)"><g fill="#132338" fill-opacity="1"><g transform="translate(0.422677, 64.470456)"><g><path d="M 36 -28.703125 C 36 -26.242188 35.4375 -24 34.3125 -21.96875 C 33.1875 -19.945312 31.457031 -18.3125 29.125 -17.0625 C 26.789062 -15.8125 23.894531 -15.1875 20.4375 -15.1875 L 14.046875 -15.1875 L 14.046875 0 L 3.734375 0 L 3.734375 -42.328125 L 20.4375 -42.328125 C 23.8125 -42.328125 26.664062 -41.742188 29 -40.578125 C 31.332031 -39.410156 33.082031 -37.800781 34.25 -35.75 C 35.414062 -33.707031 36 -31.359375 36 -28.703125 Z M 19.65625 -23.390625 C 21.625 -23.390625 23.085938 -23.851562 24.046875 -24.78125 C 25.015625 -25.707031 25.5 -27.015625 25.5 -28.703125 C 25.5 -30.390625 25.015625 -31.691406 24.046875 -32.609375 C 23.085938 -33.535156 21.625 -34 19.65625 -34 L 14.046875 -34 L 14.046875 -23.390625 Z M 19.65625 -23.390625 "/></g></g></g><g fill="#132338" fill-opacity="1"><g transform="translate(36.237059, 64.470456)"><g><path d="M 14.046875 -28.03125 C 15.253906 -29.882812 16.757812 -31.34375 18.5625 -32.40625 C 20.375 -33.46875 22.382812 -34 24.59375 -34 L 24.59375 -23.09375 L 21.765625 -23.09375 C 19.191406 -23.09375 17.257812 -22.539062 15.96875 -21.4375 C 14.6875 -20.332031 14.046875 -18.390625 14.046875 -15.609375 L 14.046875 0 L 3.734375 0 L 3.734375 -33.640625 L 14.046875 -33.640625 Z M 14.046875 -28.03125 "/></g></g></g><g fill="#132338" fill-opacity="1"><g transform="translate(60.233771, 64.470456)"><g><path d="M 8.921875 -37.140625 C 7.109375 -37.140625 5.628906 -37.671875 4.484375 -38.734375 C 3.347656 -39.804688 2.78125 -41.125 2.78125 -42.6875 C 2.78125 -44.300781 3.347656 -45.640625 4.484375 -46.703125 C 5.628906 -47.765625 7.109375 -48.296875 8.921875 -48.296875 C 10.691406 -48.296875 12.148438 -47.765625 13.296875 -46.703125 C 14.441406 -45.640625 15.015625 -44.300781 15.015625 -42.6875 C 15.015625 -41.125 14.441406 -39.804688 13.296875 -38.734375 C 12.148438 -37.671875 10.691406 -37.140625 8.921875 -37.140625 Z M 14.046875 -33.640625 L 14.046875 0 L 3.734375 0 L 3.734375 -33.640625 Z M 14.046875 -33.640625 "/></g></g></g><g fill="#132338" fill-opacity="1"><g transform="translate(76.211356, 64.470456)"><g><path d="M 24.234375 -34 C 28.171875 -34 31.316406 -32.722656 33.671875 -30.171875 C 36.023438 -27.617188 37.203125 -24.113281 37.203125 -19.65625 L 37.203125 0 L 26.953125 0 L 26.953125 -18.265625 C 26.953125 -20.515625 26.367188 -22.265625 25.203125 -23.515625 C 24.035156 -24.765625 22.46875 -25.390625 20.5 -25.390625 C 18.53125 -25.390625 16.960938 -24.765625 15.796875 -23.515625 C 14.628906 -22.265625 14.046875 -20.515625 14.046875 -18.265625 L 14.046875 0 L 3.734375 0 L 3.734375 -33.640625 L 14.046875 -33.640625 L 14.046875 -29.1875 C 15.085938 -30.675781 16.492188 -31.847656 18.265625 -32.703125 C 20.035156 -33.566406 22.023438 -34 24.234375 -34 Z M 24.234375 -34 "/></g></g></g><g fill="#132338" fill-opacity="1"><g transform="translate(115.040447, 64.470456)"><g><path d="M 22.484375 -8.75 L 22.484375 0 L 17.25 0 C 13.507812 0 10.59375 -0.910156 8.5 -2.734375 C 6.40625 -4.566406 5.359375 -7.554688 5.359375 -11.703125 L 5.359375 -25.078125 L 1.265625 -25.078125 L 1.265625 -33.640625 L 5.359375 -33.640625 L 5.359375 -41.84375 L 15.671875 -41.84375 L 15.671875 -33.640625 L 22.4375 -33.640625 L 22.4375 -25.078125 L 15.671875 -25.078125 L 15.671875 -11.578125 C 15.671875 -10.566406 15.910156 -9.84375 16.390625 -9.40625 C 16.878906 -8.96875 17.6875 -8.75 18.8125 -8.75 Z M 22.484375 -8.75 "/></g></g></g><g fill="#132338" fill-opacity="1"><g transform="translate(0.422677, 117.399694)"><g><path d="M 29.359375 -21.703125 C 31.816406 -21.179688 33.785156 -19.960938 35.265625 -18.046875 C 36.753906 -16.140625 37.5 -13.960938 37.5 -11.515625 C 37.5 -7.972656 36.265625 -5.164062 33.796875 -3.09375 C 31.328125 -1.03125 27.878906 0 23.453125 0 L 3.734375 0 L 3.734375 -42.328125 L 22.796875 -42.328125 C 27.097656 -42.328125 30.460938 -41.34375 32.890625 -39.375 C 35.328125 -37.40625 36.546875 -34.734375 36.546875 -31.359375 C 36.546875 -28.859375 35.890625 -26.785156 34.578125 -25.140625 C 33.273438 -23.492188 31.535156 -22.347656 29.359375 -21.703125 Z M 14.046875 -25.203125 L 20.796875 -25.203125 C 22.484375 -25.203125 23.78125 -25.570312 24.6875 -26.3125 C 25.59375 -27.0625 26.046875 -28.160156 26.046875 -29.609375 C 26.046875 -31.054688 25.59375 -32.160156 24.6875 -32.921875 C 23.78125 -33.679688 22.484375 -34.0625 20.796875 -34.0625 L 14.046875 -34.0625 Z M 21.640625 -8.328125 C 23.367188 -8.328125 24.707031 -8.71875 25.65625 -9.5 C 26.601562 -10.28125 27.078125 -11.414062 27.078125 -12.90625 C 27.078125 -14.394531 26.582031 -15.5625 25.59375 -16.40625 C 24.613281 -17.25 23.257812 -17.671875 21.53125 -17.671875 L 14.046875 -17.671875 L 14.046875 -8.328125 Z M 21.640625 -8.328125 "/></g></g></g><g fill="#132338" fill-opacity="1"><g transform="translate(38.347358, 117.399694)"><g><path d="M 36.96875 -33.640625 L 36.96875 0 L 26.65625 0 L 26.65625 -4.578125 C 25.601562 -3.097656 24.179688 -1.90625 22.390625 -1 C 20.609375 -0.09375 18.632812 0.359375 16.46875 0.359375 C 13.894531 0.359375 11.617188 -0.210938 9.640625 -1.359375 C 7.671875 -2.503906 6.144531 -4.160156 5.0625 -6.328125 C 3.976562 -8.503906 3.4375 -11.054688 3.4375 -13.984375 L 3.4375 -33.640625 L 13.6875 -33.640625 L 13.6875 -15.375 C 13.6875 -13.125 14.269531 -11.375 15.4375 -10.125 C 16.601562 -8.882812 18.171875 -8.265625 20.140625 -8.265625 C 22.148438 -8.265625 23.738281 -8.882812 24.90625 -10.125 C 26.070312 -11.375 26.65625 -13.125 26.65625 -15.375 L 26.65625 -33.640625 Z M 36.96875 -33.640625 "/></g></g></g><g fill="#132338" fill-opacity="1"><g transform="translate(77.176448, 117.399694)"><g><path d="M 14.046875 -28.03125 C 15.253906 -29.882812 16.757812 -31.34375 18.5625 -32.40625 C 20.375 -33.46875 22.382812 -34 24.59375 -34 L 24.59375 -23.09375 L 21.765625 -23.09375 C 19.191406 -23.09375 17.257812 -22.539062 15.96875 -21.4375 C 14.6875 -20.332031 14.046875 -18.390625 14.046875 -15.609375 L 14.046875 0 L 3.734375 0 L 3.734375 -33.640625 L 14.046875 -33.640625 Z M 14.046875 -28.03125 "/></g></g></g><g fill="#132338" fill-opacity="1"><g transform="translate(101.173161, 117.399694)"><g><path d="M 35.453125 -17.359375 C 35.453125 -16.398438 35.394531 -15.394531 35.28125 -14.34375 L 11.9375 -14.34375 C 12.101562 -12.257812 12.773438 -10.664062 13.953125 -9.5625 C 15.140625 -8.457031 16.597656 -7.90625 18.328125 -7.90625 C 20.898438 -7.90625 22.691406 -8.988281 23.703125 -11.15625 L 34.671875 -11.15625 C 34.109375 -8.945312 33.09375 -6.957031 31.625 -5.1875 C 30.15625 -3.414062 28.316406 -2.023438 26.109375 -1.015625 C 23.898438 -0.015625 21.425781 0.484375 18.6875 0.484375 C 15.394531 0.484375 12.460938 -0.21875 9.890625 -1.625 C 7.316406 -3.03125 5.304688 -5.039062 3.859375 -7.65625 C 2.410156 -10.269531 1.6875 -13.328125 1.6875 -16.828125 C 1.6875 -20.316406 2.398438 -23.367188 3.828125 -25.984375 C 5.253906 -28.597656 7.253906 -30.609375 9.828125 -32.015625 C 12.398438 -33.421875 15.351562 -34.125 18.6875 -34.125 C 21.945312 -34.125 24.84375 -33.441406 27.375 -32.078125 C 29.90625 -30.710938 31.882812 -28.765625 33.3125 -26.234375 C 34.738281 -23.703125 35.453125 -20.742188 35.453125 -17.359375 Z M 24.90625 -20.078125 C 24.90625 -21.847656 24.300781 -23.253906 23.09375 -24.296875 C 21.882812 -25.347656 20.378906 -25.875 18.578125 -25.875 C 16.847656 -25.875 15.390625 -25.367188 14.203125 -24.359375 C 13.015625 -23.359375 12.28125 -21.929688 12 -20.078125 Z M 24.90625 -20.078125 "/></g></g></g><g fill="#132338" fill-opacity="1"><g transform="translate(136.505188, 117.399694)"><g><path d="M 1.6875 -16.890625 C 1.6875 -20.335938 2.335938 -23.367188 3.640625 -25.984375 C 4.953125 -28.597656 6.734375 -30.609375 8.984375 -32.015625 C 11.234375 -33.421875 13.742188 -34.125 16.515625 -34.125 C 18.890625 -34.125 20.96875 -33.640625 22.75 -32.671875 C 24.539062 -31.710938 25.921875 -30.445312 26.890625 -28.875 L 26.890625 -33.640625 L 37.203125 -33.640625 L 37.203125 0 L 26.890625 0 L 26.890625 -4.765625 C 25.890625 -3.191406 24.492188 -1.921875 22.703125 -0.953125 C 20.910156 0.00390625 18.832031 0.484375 16.46875 0.484375 C 13.726562 0.484375 11.234375 -0.226562 8.984375 -1.65625 C 6.734375 -3.082031 4.953125 -5.113281 3.640625 -7.75 C 2.335938 -10.382812 1.6875 -13.429688 1.6875 -16.890625 Z M 26.890625 -16.828125 C 26.890625 -19.398438 26.175781 -21.425781 24.75 -22.90625 C 23.320312 -24.394531 21.582031 -25.140625 19.53125 -25.140625 C 17.488281 -25.140625 15.753906 -24.40625 14.328125 -22.9375 C 12.898438 -21.46875 12.1875 -19.453125 12.1875 -16.890625 C 12.1875 -14.316406 12.898438 -12.273438 14.328125 -10.765625 C 15.753906 -9.253906 17.488281 -8.5 19.53125 -8.5 C 21.582031 -8.5 23.320312 -9.242188 24.75 -10.734375 C 26.175781 -12.222656 26.890625 -14.253906 26.890625 -16.828125 Z M 26.890625 -16.828125 "/></g></g></g><g fill="#132338" fill-opacity="1"><g transform="translate(175.635757, 117.399694)"><g><path d="M 36.96875 -33.640625 L 36.96875 0 L 26.65625 0 L 26.65625 -4.578125 C 25.601562 -3.097656 24.179688 -1.90625 22.390625 -1 C 20.609375 -0.09375 18.632812 0.359375 16.46875 0.359375 C 13.894531 0.359375 11.617188 -0.210938 9.640625 -1.359375 C 7.671875 -2.503906 6.144531 -4.160156 5.0625 -6.328125 C 3.976562 -8.503906 3.4375 -11.054688 3.4375 -13.984375 L 3.4375 -33.640625 L 13.6875 -33.640625 L 13.6875 -15.375 C 13.6875 -13.125 14.269531 -11.375 15.4375 -10.125 C 16.601562 -8.882812 18.171875 -8.265625 20.140625 -8.265625 C 22.148438 -8.265625 23.738281 -8.882812 24.90625 -10.125 C 26.070312 -11.375 26.65625 -13.125 26.65625 -15.375 L 26.65625 -33.640625 Z M 36.96875 -33.640625 "/></g></g></g></g></g></svg>